<svg width="16" height="16" viewBox="0 0 16 16" fill="none" xmlns="http://www.w3.org/2000/svg">
<g clip-path="url(#clip0_437_2)">
<rect width="16" height="16" fill="white"/>
<path d="M21.7395 13.9905C21.7395 18.2697 18.2704 21.7386 13.9911 21.7386C9.71181 21.7386 6.24274 18.2697 6.24274 13.9905C6.24274 9.71133 9.71181 6.24238 13.9911 6.24238C18.2704 6.24238 21.7395 9.71133 21.7395 13.9905Z" fill="#2B2B2B"/>
<path d="M32.9822 -0.290354C32.9822 -2.89142 30.8736 -5 28.2724 -5C25.6713 -5 23.5626 -2.89142 23.5626 -0.290354C23.5626 2.31071 25.6713 4.41929 28.2724 4.41929C30.8736 4.41929 32.9822 2.31071 32.9822 -0.290354Z" fill="#2B2B2B"/>
<path d="M4.41959 -0.290354C4.41959 -2.89142 2.31095 -5 -0.290203 -5C-2.89135 -5 -5 -2.89142 -5 -0.290354C-5 2.31071 -2.89135 4.41929 -0.290203 4.41929C2.31095 4.41929 4.41959 2.31071 4.41959 -0.290354Z" fill="#2B2B2B"/>
<path d="M4.41959 28.2714C4.41959 25.6703 2.31095 23.5617 -0.290203 23.5617C-2.89135 23.5617 -5 25.6703 -5 28.2714C-5 30.8724 -2.89135 32.981 -0.290203 32.981C2.31095 32.981 4.41959 30.8724 4.41959 28.2714Z" fill="#2B2B2B"/>
<path d="M32.9822 28.2714C32.9822 25.6703 30.8736 23.5617 28.2724 23.5617C25.6713 23.5617 23.5626 25.6703 23.5626 28.2714C23.5626 30.8724 25.6713 32.981 28.2724 32.981C30.8736 32.981 32.9822 30.8724 32.9822 28.2714Z" fill="#2B2B2B"/>
<path d="M14.0101 0.098341L5.17924 5.19668V-5L14.0101 0.098341Z" fill="#3D3D3D"/>
<path d="M14.0101 27.9017L5.17924 22.8033V33L14.0101 27.9017Z" fill="#3D3D3D"/>
<path d="M13.9911 0.098341L22.822 5.19668V-5L13.9911 0.098341Z" fill="#3D3D3D"/>
<path d="M13.9911 27.9017L22.822 22.8033V33L13.9911 27.9017Z" fill="#3D3D3D"/>
<path d="M27.9015 14.0095L33 5.17891H22.803L27.9015 14.0095Z" fill="#3D3D3D"/>
<path d="M27.9015 13.9905L33 22.8211H22.803L27.9015 13.9905Z" fill="#3D3D3D"/>
<path d="M0.0985046 14.0095L5.19701 5.17891H-5L0.0985046 14.0095Z" fill="#3D3D3D"/>
<path d="M0.0985046 13.9905L5.19701 22.8211H-5L0.0985046 13.9905Z" fill="#3D3D3D"/>
</g>
<defs>
<clipPath id="clip0_437_2">
<rect width="16" height="16" fill="white"/>
</clipPath>
</defs>
</svg>
