<svg width="501" height="501" viewBox="0 0 501 501" fill="none" xmlns="http://www.w3.org/2000/svg">
<path d="M352 250C352 306.333 306.333 352 250 352C193.667 352 148 306.333 148 250C148 193.667 193.667 148 250 148C306.333 148 352 193.667 352 250Z" fill="#2B2B2B"/>
<path d="M500 62C500 27.7584 472.242 5.08145e-06 438 5.08145e-06C403.758 5.08145e-06 376 27.7584 376 62C376 96.2417 403.758 124 438 124C472.242 124 500 96.2417 500 62Z" fill="#2B2B2B"/>
<path d="M124 62C124 27.7584 96.2417 5.08145e-06 62 5.08145e-06C27.7584 5.08145e-06 5.08145e-06 27.7584 5.08145e-06 62C5.08145e-06 96.2417 27.7584 124 62 124C96.2417 124 124 96.2417 124 62Z" fill="#2B2B2B"/>
<path d="M124 438C124 403.758 96.2417 376 62 376C27.7584 376 5.08145e-06 403.758 5.08145e-06 438C5.08145e-06 472.242 27.7584 500 62 500C96.2417 500 124 472.242 124 438Z" fill="#2B2B2B"/>
<path d="M500 438C500 403.758 472.242 376 438 376C403.758 376 376 403.758 376 438C376 472.242 403.758 500 438 500C472.242 500 500 472.242 500 438Z" fill="#2B2B2B"/>
<path d="M250.25 67.117L134 134.234V0L250.25 67.117Z" fill="#3D3D3D"/>
<path d="M250.25 433.133L134 366.016V500.25L250.25 433.133Z" fill="#3D3D3D"/>
<path d="M250 67.117L366.25 134.234V0L250 67.117Z" fill="#3D3D3D"/>
<path d="M250 433.133L366.25 366.016V500.25L250 433.133Z" fill="#3D3D3D"/>
<path d="M433.117 250.25L500.234 134H366L433.117 250.25Z" fill="#3D3D3D"/>
<path d="M433.117 250L500.234 366.25H366L433.117 250Z" fill="#3D3D3D"/>
<path d="M67.117 250.25L134.234 134H0L67.117 250.25Z" fill="#3D3D3D"/>
<path d="M67.117 250L134.234 366.25H0L67.117 250Z" fill="#3D3D3D"/>
</svg>
